<?xml version="1.0" encoding="UTF-8" standalone="no"?>
<!-- Created with Inkscape (http://www.inkscape.org/) -->

<svg
   width="148"
   height="148"
   viewBox="0 0 39.158333 39.158333"
   version="1.1"
   id="svg5">
  <defs
     id="defs2" />
  <path
     style="fill:#262626;fill-opacity:1;stroke:none;stroke-width:0.65009;stroke-linecap:round;stroke-linejoin:miter;stroke-miterlimit:2.3;stroke-dasharray:none;stroke-opacity:1;paint-order:markers stroke fill"
     d="M 7.4083333,0 6.6145833,6.6145833 -9.6666668e-8,7.4083333 V 31.75 L 6.6145833,32.54375 l 0.79375,6.614583 H 31.75 L 32.54375,32.54375 39.158334,31.75 V 7.4083333 L 32.54375,6.6145833 31.75,0 Z"
     id="BACK" />
  <path
     style="fill:#f14030;fill-opacity:1;stroke:none;stroke-width:0.79375;stroke-linecap:round;stroke-linejoin:miter;stroke-miterlimit:2.3;stroke-dasharray:none;stroke-opacity:1"
     d="m 24.077086,15.081248 h 7.9375 V 7.14375 h -7.9375 z"
     id="B" />
  <path
     style="fill:#f14030;fill-opacity:1;stroke:none;stroke-width:0.79375;stroke-linecap:round;stroke-linejoin:round;stroke-miterlimit:2.3;stroke-dasharray:none;stroke-opacity:1"
     d="m 24.077086,32.014583 h 7.9375 v -7.9375 h -7.9375 z"
     id="C" />
  <path
     style="fill:#f14030;fill-opacity:1;stroke:none;stroke-width:0.79375;stroke-linecap:round;stroke-linejoin:round;stroke-miterlimit:2.3;stroke-dasharray:none;stroke-opacity:1"
     d="M 7.1437499,15.081248 H 15.081252 V 7.14375 H 7.1437499 Z"
     id="A" />
  <path
     style="fill:#f14030;fill-opacity:1;stroke:none;stroke-width:0.79375;stroke-linecap:round;stroke-linejoin:round;stroke-miterlimit:2.3;stroke-dasharray:none;stroke-opacity:1"
     d="m 7.1437522,32.014583 h 7.9374998 v -7.9375 H 7.1437522 Z"
     id="D" />
  <path
     style="fill:#a38b8b;fill-opacity:1;stroke:none;stroke-width:0.529167;stroke-linecap:round;stroke-linejoin:miter;stroke-miterlimit:2.3;stroke-dasharray:none;stroke-opacity:1"
     d="m 15.61042,7.14375 h 7.9375 c 0,7.9375 0,7.9375 -3.96875,7.9375 -3.96875,0 -3.96875,0 -3.96875,-7.9375 z"
     id="a" />
  <path
     style="fill:#a38b8b;fill-opacity:1;stroke:none;stroke-width:0.529167;stroke-linecap:round;stroke-linejoin:miter;stroke-miterlimit:2.3;stroke-dasharray:none;stroke-opacity:1"
     d="m 23.54792,32.014583 h -7.9375 c 0,-7.9375 0,-7.9375 3.96875,-7.9375 3.96875,0 3.96875,0 3.96875,7.9375 z"
     id="c" />
  <path
     style="fill:#a38b8b;fill-opacity:1;stroke:none;stroke-width:0.529167;stroke-linecap:round;stroke-linejoin:miter;stroke-miterlimit:2.3;stroke-dasharray:none;stroke-opacity:1"
     d="m 7.1437522,23.547916 v -7.9375 c 7.9375008,0 7.9375008,0 7.9375008,3.96875 0,3.96875 0,3.96875 -7.9375008,3.96875 z"
     id="d" />
  <path
     style="fill:#a38b8b;fill-opacity:1;stroke:none;stroke-width:0.529167;stroke-linecap:round;stroke-linejoin:miter;stroke-miterlimit:2.3;stroke-dasharray:none;stroke-opacity:1"
     d="m 32.014586,15.610416 v 7.9375 c -7.9375,0 -7.9375,0 -7.9375,-3.96875 0,-3.96875 0,-3.96875 7.9375,-3.96875 z"
     id="b" />
  <path
     style="fill:#a38b8b;fill-opacity:1;stroke:none;stroke-width:1.05833;stroke-linecap:round;stroke-linejoin:round;stroke-miterlimit:2.3;stroke-dasharray:none;stroke-opacity:1"
     d="m 15.61042,19.579166 c 0,3.96875 0,3.96875 3.96875,3.96875 3.96875,0 3.96875,0 3.96875,-3.96875 0,-3.96875 0,-3.96875 -3.96875,-3.96875 -3.96875,0 -3.96875,0 -3.96875,3.96875 z"
     id="CENTER" />
  <path
     style="fill:#f14030;fill-opacity:1;stroke:none;stroke-width:0.529;stroke-linecap:round;stroke-linejoin:miter;stroke-miterlimit:2.3;stroke-dasharray:none;stroke-opacity:1;paint-order:markers stroke fill"
     d="M 7.1437499,6.35 H 15.08125 V 0.52916677 l -7.4083334,-2e-7 z"
     id="R" />
  <path
     style="fill:#a38b8b;fill-opacity:1;stroke:none;stroke-width:0.529;stroke-linecap:round;stroke-linejoin:miter;stroke-miterlimit:2.3;stroke-dasharray:none;stroke-opacity:1;paint-order:markers stroke fill"
     d="m 15.610417,6.3499999 h 7.9375 V 0.52916667 h -7.9375 z"
     id="q" />
  <path
     style="fill:#f14030;fill-opacity:1;stroke:none;stroke-width:0.529;stroke-linecap:round;stroke-linejoin:miter;stroke-miterlimit:2.3;stroke-dasharray:none;stroke-opacity:1;paint-order:markers stroke fill"
     d="m 24.077084,6.3499999 h 7.9375 l -0.79375,-5.82083333 -7.14375,10e-8 z"
     id="Q" />
  <path
     style="fill:#f14030;fill-opacity:1;stroke:none;stroke-width:0.529;stroke-linecap:round;stroke-linejoin:miter;stroke-miterlimit:2.3;stroke-dasharray:none;stroke-opacity:1;paint-order:markers stroke fill"
     d="m 32.808334,7.14375 v 7.9375 h 5.820834 l -10e-7,-7.14375 z"
     id="N" />
  <path
     style="fill:#a38b8b;fill-opacity:1;stroke:none;stroke-width:0.529;stroke-linecap:round;stroke-linejoin:miter;stroke-miterlimit:2.3;stroke-dasharray:none;stroke-opacity:1;paint-order:markers stroke fill"
     d="m 32.808334,15.610416 v 7.937501 h 5.820834 v -7.937501 z"
     id="m" />
  <path
     style="fill:#f14030;fill-opacity:1;stroke:none;stroke-width:0.529;stroke-linecap:round;stroke-linejoin:miter;stroke-miterlimit:2.3;stroke-dasharray:none;stroke-opacity:1;paint-order:markers stroke fill"
     d="m 32.808334,24.077083 v 7.9375 l 5.820833,-0.529167 10e-7,-7.408333 z"
     id="M" />
  <path
     style="fill:#f14030;fill-opacity:1;stroke:none;stroke-width:0.529;stroke-linecap:round;stroke-linejoin:miter;stroke-miterlimit:2.3;stroke-dasharray:none;stroke-opacity:1;paint-order:markers stroke fill"
     d="m 24.077084,38.629166 h 7.408333 l 0.529167,-5.820833 h -7.9375 z"
     id="J" />
  <path
     style="fill:#a38b8b;fill-opacity:1;stroke:none;stroke-width:0.529;stroke-linecap:round;stroke-linejoin:miter;stroke-miterlimit:2.3;stroke-dasharray:none;stroke-opacity:1;paint-order:markers stroke fill"
     d="m 15.610417,38.629166 h 7.9375 v -5.820833 h -7.9375 z"
     id="i" />
  <path
     style="fill:#f14030;fill-opacity:1;stroke:none;stroke-width:0.529;stroke-linecap:round;stroke-linejoin:miter;stroke-miterlimit:2.3;stroke-dasharray:none;stroke-opacity:1;paint-order:markers stroke fill"
     d="M 7.6729166,38.629166 H 15.08125 V 32.808333 H 7.1437499 Z"
     id="I" />
  <path
     style="fill:#f14030;fill-opacity:1;stroke:none;stroke-width:0.529;stroke-linecap:round;stroke-linejoin:miter;stroke-miterlimit:2.3;stroke-dasharray:none;stroke-opacity:1;paint-order:markers stroke fill"
     d="M 0.52916663,7.6729166 V 15.08125 H 6.3500006 v -7.9375 z"
     id="E" />
  <path
     style="fill:#a38b8b;fill-opacity:1;stroke:none;stroke-width:0.529;stroke-linecap:round;stroke-linejoin:miter;stroke-miterlimit:2.3;stroke-dasharray:none;stroke-opacity:1;paint-order:markers stroke fill"
     d="m 0.52916663,15.610416 v 7.937501 H 6.3500006 v -7.937501 z"
     id="e" />
  <path
     style="fill:#f14030;fill-opacity:1;stroke:none;stroke-width:0.529;stroke-linecap:round;stroke-linejoin:miter;stroke-miterlimit:2.3;stroke-dasharray:none;stroke-opacity:1;paint-order:markers stroke fill"
     d="m 0.52916663,24.077083 v 7.408333 l 5.82083397,0.529167 v -7.9375 z"
     id="F" />
</svg>
